<svg width="58" height="59" viewBox="0 0 58 59" fill="none" xmlns="http://www.w3.org/2000/svg">
<path d="M11.8417 32.7418C16.5944 32.7418 20.1389 33.9169 22.475 36.2672C24.8917 38.6174 26.1 41.7782 26.1 45.7493C26.1 49.5584 24.8917 52.7191 22.475 55.2315C20.0583 57.7438 16.9972 59 13.2917 59C9.58611 59 6.44444 57.4196 3.86667 54.2589C1.28889 51.0172 0 46.3166 0 40.1573C0 33.1875 0.966667 26.9876 2.9 21.5577C4.91389 16.0467 7.73333 11.5082 11.3583 7.94232C15.0639 4.29533 19.4944 1.74244 24.65 0.283653C25.0528 0.121567 25.375 0.0810477 25.6167 0.162095C25.8583 0.162095 26.0194 0.283657 26.1 0.526781C26.1806 0.769915 26.1403 1.01305 25.9792 1.25618C25.8181 1.49932 25.5764 1.66141 25.2542 1.74245C20.4208 3.28228 16.4736 5.67308 13.4125 8.91483C10.4319 12.0755 8.21667 15.5604 6.76667 19.3695C5.39722 23.0975 4.7125 26.5824 4.7125 29.8242C4.7125 30.7157 4.91389 31.4451 5.31667 32.0124C5.8 32.4986 6.56528 32.7418 7.6125 32.7418H11.8417ZM43.7417 32.6202C48.4139 32.6202 51.9181 33.7953 54.2542 36.1456C56.6708 38.4959 57.8792 41.6566 57.8792 45.6278C57.8792 49.4368 56.6708 52.5975 54.2542 55.1099C51.8375 57.6223 48.8167 58.8784 45.1917 58.8784C41.4861 58.8784 38.3444 57.2981 35.7667 54.1374C33.1889 50.8956 31.9 46.2356 31.9 40.1573C31.9 33.1065 32.8667 26.8661 34.8 21.4361C36.7333 15.9251 39.5125 11.3867 43.1375 7.82074C46.8431 4.17377 51.2736 1.62089 56.4292 0.162095C56.9125 0 57.275 -0.0405239 57.5167 0.0405239C57.7583 0.0405239 57.9194 0.162091 58 0.405224C58 0.648358 57.9194 0.891487 57.7583 1.13461C57.6778 1.37774 57.4361 1.58036 57.0333 1.74245C52.2806 3.20124 48.3736 5.55151 45.3125 8.79327C42.2514 12.035 39.9958 15.5604 38.5458 19.3695C37.1764 23.0975 36.4917 26.5419 36.4917 29.7026C36.4917 30.5941 36.7333 31.3235 37.2167 31.8908C37.7 32.3771 38.4653 32.6202 39.5125 32.6202H43.7417Z" fill="white"/>
</svg>
